<svg width="256" height="166" viewBox="0 0 256 166" fill="none" xmlns="http://www.w3.org/2000/svg">
<g clip-path="url(#clip0_38_106)">
<path d="M165.521 28.9058C165.429 28.7866 165.336 28.6674 165.237 28.5516C163.764 26.7841 161.709 25.6501 159.411 25.3299C157.073 25.0064 154.745 25.5683 152.823 26.9101C149.698 23.0823 144.043 22.3773 140.06 25.3776C139.787 25.5819 139.53 25.7999 139.288 26.0281C139.117 26.1881 138.956 26.355 138.802 26.5253C138.819 26.5525 138.836 26.5764 138.857 26.6036L149.702 41.1351L149.975 40.9307C150.55 40.5085 163.979 30.5609 164.403 30.2441C164.865 29.8968 165.285 29.5119 165.661 29.0999C165.617 29.0352 165.569 28.9705 165.521 28.9058Z" fill="white"/>
<path d="M166.205 17.3269C164.714 15.3585 162.543 14.0916 160.095 13.7511C157.757 13.4276 155.428 13.9895 153.507 15.3313C150.382 11.5034 144.727 10.7985 140.744 13.7988C136.758 16.7956 135.9 22.4897 138.802 26.5253C138.819 26.5525 138.836 26.5764 138.857 26.6036L149.702 41.1351L149.975 40.9308C150.55 40.5085 163.979 30.5609 164.403 30.2441C164.865 29.8968 165.285 29.5119 165.661 29.0999C168.608 25.885 168.937 20.9232 166.205 17.3269ZM165.237 28.5516C164.865 28.9705 164.448 29.3553 163.989 29.6992C163.603 29.9921 151.804 38.7274 149.842 40.1815L139.407 26.1984C139.366 26.1439 139.325 26.086 139.288 26.0281C136.682 22.2956 137.5 17.0953 141.158 14.3402C142.703 13.179 144.515 12.617 146.317 12.617C148.915 12.617 151.486 13.7851 153.169 16.0056L153.374 16.278L153.647 16.0703C157.418 13.2334 162.81 13.9792 165.661 17.7356C167.043 19.5575 167.627 21.8018 167.313 24.0631C167.077 25.759 166.355 27.3052 165.237 28.5516Z" fill="#3F3D56"/>
<path d="M239.85 34.7366L237.617 34.396C237.31 32.8363 236.855 31.3004 236.263 29.8224C236.516 31.2595 236.421 32.7545 236.003 34.1508L211.965 30.4898C213.141 25.3407 213.808 20.5286 213.411 16.4113C212.82 10.2336 217.415 4.67238 223.641 4.45442C223.812 4.44762 223.986 4.44421 224.16 4.44421C229.928 4.44421 234.691 7.80208 235.385 12.1407C235.631 13.6937 235.976 15.233 236.263 16.7825C237.34 22.5856 241.846 30.3196 239.85 34.7366Z" fill="#2F2E41"/>
<path d="M176.662 43.9766C177.438 44.2971 178.076 44.7655 178.51 45.285L186.091 47.8735L184.749 51.4305L177.203 48.4218C176.528 48.4829 175.744 48.3634 174.968 48.0429C173.197 47.3107 172.14 45.8069 172.608 44.684C173.076 43.5611 174.891 43.2444 176.662 43.9766Z" fill="#FFB6B6"/>
<path d="M201.038 158.156L198.04 158.227L196.369 144.81L200.793 144.706L201.038 158.156Z" fill="#FFB7B7"/>
<path d="M190.752 164.387C190.752 164.891 191.111 165.3 191.555 165.3H197.506C197.506 165.3 198.091 162.956 200.479 161.946L200.644 165.3H203.714L203.342 159.907C203.342 159.907 204.163 157.022 202.458 155.547C200.752 154.072 202.133 154.278 202.133 154.278L201.463 150.94L196.824 151.483L196.789 156.723L194.538 161.924L191.236 163.548C190.942 163.693 190.752 164.023 190.752 164.387Z" fill="#2F2E41"/>
<path d="M233.267 158.156L230.269 158.227L228.598 144.81L233.022 144.706L233.267 158.156Z" fill="#FFB7B7"/>
<path d="M222.981 164.387C222.981 164.891 223.341 165.3 223.784 165.3H229.735C229.735 165.3 230.321 162.956 232.708 161.946L232.873 165.3H235.943L235.571 159.907C235.571 159.907 236.392 157.022 234.687 155.547C232.981 154.072 234.363 154.278 234.363 154.278L233.692 150.94L229.053 151.483L229.019 156.723L226.767 161.924L223.465 163.548C223.171 163.693 222.981 164.023 222.981 164.387Z" fill="#2F2E41"/>
<path d="M209.079 60.6188L227.542 63.6838C229.962 67.669 234.721 82.7548 234.721 82.7548C234.721 82.7548 233.474 124.665 234.54 148.912L226.858 149.163L216.601 95.0148L202.925 147.801L195.465 148.327L196.429 110.68C196.429 110.68 206.738 61.0852 209.079 60.6188Z" fill="#2F2E41"/>
<path d="M217.794 27.17L227.195 27.4626L236.891 40.3392C233.131 49.804 229.594 56.6382 229.749 63.387C229.762 63.9587 230.698 65.2432 230.775 65.7708C230.878 66.484 229.517 67.5303 229.749 68.1547L207.028 63.3432C207.488 62.6973 207.092 61.881 207.37 61.2999C207.614 60.789 208.552 60.5086 208.666 60.0132C209.282 57.3381 209.61 52.8747 207.295 47.6333C205.648 43.9064 212.895 35.2121 212.506 30.9744L217.794 27.17Z" fill="#E6E6E6"/>
<path d="M219.949 33.1822L202.656 56.4349L182.384 50.8745L183.265 45.6069L198.701 48.5191L207.313 35.3315C210.125 29.9171 215.668 28.8267 219.949 33.1822Z" fill="#E6E6E6"/>
<path d="M222.179 24.2033C226.683 24.2033 230.335 20.5659 230.335 16.0789C230.335 11.5919 226.683 7.95441 222.179 7.95441C217.674 7.95441 214.022 11.5919 214.022 16.0789C214.022 20.5659 217.674 24.2033 222.179 24.2033Z" fill="#FFB7B7"/>
<path d="M229.764 88.9952C229.993 88.1907 230.386 87.5046 230.853 87.0151L232.552 79.2141L236.255 80.1279L234.133 87.9428C234.273 88.604 234.245 89.3934 234.015 90.1978C233.491 92.0356 232.115 93.2562 230.941 92.9241C229.767 92.592 229.24 90.8329 229.764 88.9952Z" fill="#FFB6B6"/>
<path d="M230.276 31.8856C230.276 31.8856 237.113 31.5388 237.611 36.0547C238.109 40.5707 239.701 66.2908 239.701 66.2908L236.01 83.6512L230.745 82.9225L233.072 60.8246L230.276 31.8856Z" fill="#E6E6E6"/>
<path d="M230.472 9.17454C230.472 11.0101 229.449 13.3736 229.449 16.1491L226.349 15.3454C226.287 14.8073 225.972 13.125 225.832 12.6005C225.904 13.0943 226.058 14.7528 225.887 15.2228L224.366 14.8277C224.355 14.5451 224.331 14.2624 224.297 13.9832C224.236 13.4451 224.133 12.9138 223.993 12.3894C224.065 12.8832 224.007 13.3906 223.836 13.8606C223.736 14.1194 223.607 14.3646 223.442 14.5893L215.934 12.638C214.116 11.9563 213.837 14.3552 213.866 17.3683C213.866 17.3683 212.84 6.81108 220.636 6.20148L221.812 5.02997C228.892 5.43523 230.472 6.89623 230.472 9.17454Z" fill="#2F2E41"/>
<path d="M213.759 19.1687C214.038 22.0041 213.698 24.8568 213.292 27.6803C213.162 28.589 213.017 29.5191 212.531 30.3281C212.045 31.137 211.141 31.8125 210.105 31.8334C211.734 32.2716 213.612 31.8875 214.857 30.8616C216.122 29.82 216.678 28.2413 216.72 26.7139C216.763 25.1865 216.348 23.6814 215.936 22.1975L213.759 19.1687Z" fill="#2F2E41"/>
<path d="M228.646 8.24487C228.925 13.4143 228.585 18.6152 228.18 23.7629C228.05 25.4196 227.905 27.1155 227.419 28.5903C226.933 30.0652 226.028 31.2967 224.992 31.3349C226.621 32.1338 228.499 31.4335 229.745 29.5631C231.009 27.6641 231.565 24.7858 231.608 22.0011C231.65 19.2164 231.236 16.4722 230.823 13.767L228.646 8.24487Z" fill="#2F2E41"/>
<path d="M55.2754 162.37L60.183 162.37L62.5175 143.514L55.2744 143.515L55.2754 162.37Z" fill="#A0616A"/>
<path d="M72.0894 162.259C72.2422 162.516 72.3228 163.343 72.3228 163.641C72.3228 164.558 71.5771 165.3 70.6572 165.3H55.459C54.8314 165.3 54.3227 164.794 54.3227 164.169V163.538C54.3227 163.538 53.5708 161.644 55.1188 159.309C55.1188 159.309 57.0426 161.137 59.9173 158.274L60.765 156.744L66.9014 161.214L70.3027 161.631C71.0469 161.723 71.7066 161.617 72.0894 162.259Z" fill="#2F2E41"/>
<path d="M40.2322 162.37L45.1398 162.37L47.4743 143.514L40.2312 143.515L40.2322 162.37Z" fill="#A0616A"/>
<path d="M57.0462 162.259C57.199 162.516 57.2796 163.343 57.2796 163.641C57.2796 164.558 56.5339 165.3 55.614 165.3H40.4158C39.7882 165.3 39.2795 164.794 39.2795 164.169V163.538C39.2795 163.538 38.5276 161.644 40.0756 159.309C40.0756 159.309 41.9994 161.137 44.8741 158.274L45.7218 156.744L51.8582 161.214L55.2595 161.631C56.0036 161.723 56.6634 161.617 57.0462 162.259Z" fill="#2F2E41"/>
<path d="M41.0397 67.9407L37.9626 116.64L39.5012 154.215H49.0768L55.0572 90.4173L53.7287 154.215L62.5789 154.101L71.9809 80.7115C71.9809 80.7115 71.8099 73.049 68.9039 69.1326C65.9978 65.2163 41.0397 67.9407 41.0397 67.9407Z" fill="#2F2E41"/>
<path d="M76.6699 56.7377L68.9624 57.0402L69.8627 65.6156L84.9728 76.9654L87.0241 73.9004L76.174 61.4553L76.6699 56.7377Z" fill="#A0616A"/>
<path d="M62.0661 25.201L51.4675 24.1794L43.604 27.9255V58.916L41.1035 64.1238C40.2982 65.8009 40.2135 67.7324 40.8688 69.4732L68.9039 69.1326L68.2202 65.3865L69.5877 58.2349L70.6134 32.0121L62.0661 25.201Z" fill="#E6E6E6"/>
<path d="M68.391 31.8418C68.391 31.8418 70.7843 29.458 72.4937 35.588C74.2032 41.7179 78.3059 63.5134 78.3059 63.5134L68.562 63.6837L65.9978 40.3557L68.391 31.8418Z" fill="#E6E6E6"/>
<path d="M41.0398 58.0646L40.0141 83.216L36.2533 83.6062L34.8857 58.7457L41.0398 58.0646Z" fill="#A0616A"/>
<path d="M47.5355 28.0958C47.5355 28.0958 41.3815 25.7119 39.672 31.8419C37.9626 37.9718 33.8599 59.7673 33.8599 59.7673L41.3815 60.305L49.9288 36.6096L47.5355 28.0958Z" fill="#E6E6E6"/>
<path d="M56.4734 22.2345C61.6377 22.2345 65.8243 18.0644 65.8243 12.9202C65.8243 7.7761 61.6377 3.60596 56.4734 3.60596C51.3091 3.60596 47.1226 7.7761 47.1226 12.9202C47.1226 18.0644 51.3091 22.2345 56.4734 22.2345Z" fill="#A0616A"/>
<path d="M38.3412 90.7869C39.9014 90.7341 41.0937 88.5694 41.0044 85.9521C40.9151 83.3347 39.5779 81.2558 38.0178 81.3086C36.4576 81.3614 35.2653 83.526 35.3546 86.1434C35.4439 88.7607 36.7811 90.8397 38.3412 90.7869Z" fill="#A0616A"/>
<path d="M92.3033 80.722C93.3529 79.5709 92.6259 77.2104 90.6797 75.4497C88.7334 73.689 86.3049 73.1947 85.2553 74.3458C84.2058 75.4969 84.9327 77.8573 86.879 79.6181C88.8252 81.3788 91.2538 81.873 92.3033 80.722Z" fill="#A0616A"/>
<path d="M63.7188 4.90459C62.7914 3.45155 62.1537 4.03938 60.4345 3.86003C59.4491 3.75725 57.6057 2.21456 56.6407 2.43783C55.3686 2.73215 54.0647 3.03991 52.9814 3.76648C50.6847 2.42067 49.8678 5.05486 47.8764 6.81839C45.8849 8.5819 45.2096 11.6651 46.2825 14.0947C46.7934 15.2516 46.7543 16.4794 47.5854 17.4346C48.5421 18.5343 49.0691 20.0648 49.1429 20.1495C49.541 20.6072 51.4164 20.9284 51.4928 21.0163C52.2438 21.8795 53.4537 21.6135 54.2046 22.4766L54.6376 17.9102C54.0296 17.3542 53.4005 16.7674 53.1169 15.9953C52.8333 15.2232 53.0213 14.2121 53.7496 13.8252C54.3224 13.5209 55.0887 13.6577 55.5878 13.2442C56.3497 12.613 55.8797 11.2926 56.4343 10.4746C56.7623 9.99098 57.3706 9.79632 57.9333 9.63367C58.8453 9.37001 59.7573 9.10637 60.6692 8.84274C61.5176 8.59747 62.389 8.34969 63.2696 8.41969C64.1502 8.48971 65.0558 8.94732 65.4038 9.75615C65.0828 8.06423 64.6463 6.35764 63.7188 4.90459Z" fill="#2F2E41"/>
<path d="M95.5288 63.4451C94.369 60.4682 91.006 58.9915 88.0174 60.1468C85.0572 61.2911 83.5762 64.5883 84.6754 67.5437L84.5887 67.5772L88.7888 78.3576L98.7476 74.5079C99.0769 74.443 99.4051 74.3506 99.7288 74.2255C102.717 73.0702 104.2 69.7203 103.04 66.7434C101.88 63.7665 98.5174 62.2898 95.5288 63.4451Z" fill="white"/>
<path d="M176.6 5.78943V41.8882C176.6 45.0806 173.992 47.6777 170.788 47.6777H134.547C131.342 47.6777 128.735 45.0806 128.735 41.8882V5.78943C128.735 2.59706 131.342 0 134.547 0H170.788C173.992 0 176.6 2.59706 176.6 5.78943ZM170.788 46.9966C173.62 46.9966 175.916 44.7095 175.916 41.8882V23.6887C175.916 10.9819 165.575 0.68111 152.818 0.68111C139.895 0.68111 129.419 11.1164 129.419 23.989V41.8882C129.419 44.7095 131.715 46.9966 134.547 46.9966H170.788Z" fill="#3F3D56"/>
<path d="M168.844 13.0173C165.681 12.4971 162.694 14.6294 162.171 17.78C161.654 20.9006 163.75 23.8483 166.864 24.4095L166.849 24.5009L178.303 26.3848L180.043 15.8863C180.154 15.571 180.241 15.2425 180.298 14.9012C180.82 11.7506 178.68 8.77486 175.517 8.25465C172.354 7.73444 169.366 9.86672 168.844 13.0173Z" fill="white"/>
<path d="M131.086 38.2441C129.926 35.2671 126.563 33.7904 123.574 34.9457C120.614 36.09 119.133 39.3872 120.232 42.3427L120.146 42.3762L124.346 53.1565L134.305 49.3068C134.634 49.242 134.962 49.1496 135.286 49.0244C138.274 47.8691 139.757 44.5193 138.597 41.5424C137.437 38.5655 134.074 37.0888 131.086 38.2441Z" fill="white"/>
<path d="M221.372 76.8481C218.239 76.1716 215.149 78.153 214.47 81.2737C213.797 84.3649 215.743 87.4129 218.825 88.1279L218.805 88.2184L230.151 90.6683L232.414 80.2692C232.541 79.9598 232.644 79.636 232.718 79.298C233.397 76.1772 231.408 73.0989 228.275 72.4224C225.142 71.7459 222.052 73.7273 221.372 76.8481Z" fill="white"/>
<path d="M26.8439 159.943C26.1376 159.987 25.7472 159.113 26.2816 158.603L26.3347 158.393C26.3277 158.376 26.3207 158.359 26.3136 158.342C25.5993 156.646 23.1785 156.657 22.4703 158.356C21.8417 159.864 21.0414 161.375 20.8443 162.97C20.756 163.673 20.7957 164.39 20.9525 165.081C19.4796 161.876 18.7045 158.377 18.7045 154.857C18.7045 153.973 18.7531 153.089 18.8525 152.207C18.9342 151.485 19.0468 150.768 19.1926 150.058C19.9809 146.217 21.6879 142.559 24.15 139.504C25.3337 138.86 26.3207 137.852 26.9169 136.645C27.1311 136.209 27.299 135.741 27.3785 135.263C27.2438 135.281 26.8706 133.238 26.9722 133.112C26.7844 132.828 26.4485 132.687 26.2434 132.41C25.2238 131.033 23.819 131.274 23.0857 133.145C21.519 133.933 21.5039 135.239 22.4651 136.495C23.0767 137.294 23.1607 138.376 23.6973 139.231C23.6421 139.302 23.5847 139.37 23.5295 139.44C22.5171 140.734 21.6416 142.124 20.9034 143.584C21.112 141.961 20.804 140.006 20.279 138.745C19.6813 137.309 18.561 136.099 17.5745 134.858C16.3895 133.367 13.9595 134.017 13.7508 135.908C13.7487 135.926 13.7468 135.945 13.7448 135.963C13.8914 136.045 14.0349 136.133 14.1752 136.225C14.975 136.752 14.6986 137.987 13.7508 138.133L13.7294 138.136C13.7824 138.662 13.8729 139.183 14.0054 139.696C12.7398 144.571 15.4722 146.347 19.3736 146.426C19.4597 146.47 19.5437 146.514 19.6298 146.556C19.2345 147.665 18.9187 148.802 18.6847 149.954C18.4749 150.973 18.3291 152.002 18.2474 153.036C18.1458 154.34 18.1547 155.651 18.2651 156.954L18.2585 156.907C17.978 155.473 17.1963 154.134 16.0613 153.205C14.3704 151.822 11.9815 151.312 10.1574 150.2C9.2793 149.665 8.15409 150.357 8.30734 151.371L8.3148 151.419C8.58641 151.529 8.85139 151.657 9.10755 151.8C9.25408 151.882 9.39763 151.97 9.53786 152.062C10.3377 152.589 10.0613 153.824 9.11355 153.97L9.09208 153.973C9.07662 153.975 9.06337 153.978 9.04793 153.98C9.51387 155.082 10.1631 156.105 10.9757 156.987C11.7671 161.243 15.1659 161.646 18.8017 160.407H18.8039C19.2014 162.131 19.7821 163.816 20.5285 165.422H26.6895C26.7116 165.354 26.7315 165.283 26.7513 165.215C26.1816 165.25 25.6075 165.217 25.0466 165.114C25.5037 164.555 25.9608 163.992 26.4179 163.434C26.4289 163.423 26.4378 163.412 26.4466 163.401C26.6785 163.115 26.9125 162.831 27.1444 162.545L27.1445 162.545C27.159 161.667 27.0532 160.792 26.8439 159.943Z" fill="#F2F2F2"/>
<path d="M0.426342 166H255.574C255.809 166 256 165.81 256 165.575C256 165.341 255.809 165.151 255.574 165.151H0.426342C0.190885 165.151 0 165.341 0 165.575C0 165.81 0.190885 166 0.426342 166Z" fill="#E6E6E6"/>
</g>
<defs>
<clipPath id="clip0_38_106">
<rect width="256" height="166" fill="white"/>
</clipPath>
</defs>
</svg>
