<svg width="207" height="166" viewBox="0 0 207 166" fill="none" xmlns="http://www.w3.org/2000/svg">
<g clip-path="url(#clip0_38_42)">
<path d="M117.794 146.856C116.364 144.863 114.429 143.404 111.996 142.858C109.874 142.382 107.692 142.463 105.535 142.48L78.2627 142.689C75.927 142.707 73.6875 144.722 73.796 147.137C73.9037 149.531 75.7591 151.604 78.2627 151.584C86.2517 151.523 94.2406 151.462 102.229 151.4C104.113 151.386 105.997 151.352 107.881 151.358C108.304 151.36 108.725 151.382 109.148 151.387C109.25 151.388 109.324 151.387 109.376 151.385C109.389 151.389 109.4 151.392 109.417 151.397C109.638 151.457 109.864 151.499 110.086 151.556C110.008 151.558 110.229 151.696 110.341 151.742C110.356 151.772 110.389 151.826 110.443 151.908C110.519 152.05 110.744 152.48 110.753 152.467C111.091 153.317 111.369 154.189 111.587 155.078C112.106 157.037 112.22 157.446 112.295 159.284C112.389 161.606 114.281 163.842 116.761 163.732C119.1 163.627 121.329 161.774 121.228 159.284C121.057 155.088 120.318 150.375 117.794 146.856Z" fill="#E6E6E6"/>
<path d="M79.8658 156.893C79.3535 153.802 78.8511 150.709 78.3289 147.62C77.799 144.486 76.7168 141.616 74.2676 139.559C73.6132 139.01 72.9346 138.496 72.2532 137.985C72.0135 137.805 71.7743 137.625 71.5375 137.441C71.5234 137.43 71.5144 137.423 71.5021 137.414C71.4761 137.392 71.4448 137.365 71.4029 137.33C70.382 136.469 69.3956 135.571 68.4561 134.616C67.6217 133.768 66.8238 132.883 66.0623 131.963C65.872 131.733 65.6842 131.501 65.4988 131.267C65.4669 131.226 65.2951 131.005 65.182 130.861C65.0767 130.717 64.8844 130.456 64.8521 130.411C64.6355 130.106 64.4228 129.798 64.2139 129.487C62.7912 127.365 61.5594 125.122 60.5325 122.784C60.4307 122.552 60.3313 122.319 60.2343 122.084C60.2083 122.012 60.1746 121.92 60.1299 121.798C59.9229 121.231 59.7164 120.665 59.5272 120.092C59.1253 118.874 58.7797 117.639 58.4904 116.385C58.3475 115.766 58.2187 115.144 58.1043 114.518C58.0453 114.197 57.99 113.875 57.9387 113.552C57.9302 113.498 57.88 113.15 57.8505 112.953C57.8287 112.755 57.788 112.405 57.7826 112.351C57.7499 112.025 57.7208 111.699 57.6955 111.373C57.6384 110.639 57.5998 109.904 57.5796 109.168C57.5453 107.859 57.5688 106.551 57.6502 105.242C57.6966 104.507 57.7626 103.774 57.8438 103.042C57.8487 102.997 57.8525 102.961 57.8561 102.929C57.861 102.897 57.8667 102.859 57.8735 102.813C57.9336 102.409 57.9969 102.005 58.0676 101.602C58.3355 100.073 58.684 98.5598 59.1115 97.0675C59.3139 96.3617 59.5338 95.6616 59.7711 94.9673C59.8769 94.659 59.986 94.352 60.0985 94.0461C60.0912 94.0659 60.4285 93.2078 60.433 93.179C61.7716 90.0298 63.9611 87.1589 63.9641 83.5815C63.9661 81.1594 61.9082 78.8392 59.4974 78.9512C58.2954 78.9962 57.158 79.5041 56.3247 80.3679C55.4915 81.2317 55.0276 82.3838 55.0307 83.5815C55.0307 83.6359 55.0305 83.6823 55.0303 83.7273C55.0078 83.8027 54.989 83.8657 54.9721 83.9213C54.7111 84.4861 54.3913 85.0229 54.1048 85.5737C53.3202 87.0813 52.6505 88.6383 52.0143 90.2182C50.9728 92.791 50.1756 95.4553 49.6332 98.1762C48.4541 104.138 48.3626 110.262 49.363 116.256C51.0949 126.767 56.8061 136.828 64.7459 143.592C65.435 144.179 66.1408 144.746 66.8533 145.301C67.1482 145.531 67.4455 145.757 67.7443 145.981C67.8855 146.087 68.4705 146.547 68.2132 146.324C68.7666 146.794 68.9996 147.031 69.1417 147.377C69.1623 147.457 69.1904 147.566 69.2284 147.714C69.3286 148.105 69.4238 148.495 69.5028 148.891C70.1939 152.352 70.6743 155.871 71.2516 159.355C71.6484 161.748 74.6077 163.306 76.7462 162.589C79.2352 161.754 80.291 159.457 79.8658 156.893Z" fill="#E6E6E6"/>
<path d="M118.246 165.87C116.37 165.875 114.569 165.139 113.238 163.823C111.906 162.507 111.153 160.719 111.144 158.851V153.778C105.81 154.372 87.5424 154.235 82.3062 153.397V158.648C82.2922 160.515 81.5377 162.3 80.2073 163.615C78.877 164.929 77.0786 165.667 75.2042 165.667C73.3298 165.667 71.5313 164.929 70.201 163.615C68.8706 162.3 68.1162 160.515 68.1021 158.648V148.338C61.0101 144.415 55.0979 138.678 50.9756 131.72C46.8534 124.763 44.6704 116.836 44.6521 108.757C44.6521 94.9057 50.9565 81.9842 61.9489 73.306C69.0961 67.6444 77.7798 64.2395 86.8848 63.5287C88.1207 63.4322 89.364 63.3833 90.5806 63.3833C94.8665 63.3833 114.203 64.0426 119.055 65.4324L130.118 54.502C130.28 54.3391 130.488 54.2281 130.714 54.1832C130.941 54.1384 131.175 54.1616 131.388 54.2499C131.603 54.3349 131.786 54.4825 131.915 54.6733C132.044 54.8642 132.112 55.0893 132.11 55.3192V57.0571L134.264 54.9328C134.426 54.7697 134.633 54.6586 134.86 54.6136C135.086 54.5687 135.32 54.5919 135.533 54.6803C135.748 54.7653 135.931 54.9129 136.06 55.1038C136.189 55.2947 136.257 55.52 136.255 55.75V75.1707C141.806 80.1538 146.037 86.4234 148.573 93.4241C151.109 100.425 151.871 107.94 150.792 115.304C149.714 122.668 146.827 129.654 142.389 135.641C137.951 141.629 132.097 146.434 125.348 149.631V158.851C125.339 160.719 124.586 162.507 123.255 163.823C121.923 165.139 120.122 165.875 118.246 165.87ZM111.702 153.147V158.851C111.716 160.57 112.412 162.214 113.638 163.424C114.863 164.635 116.52 165.314 118.246 165.314C119.972 165.314 121.629 164.635 122.854 163.424C124.08 162.214 124.776 160.57 124.79 158.851V149.28L124.949 149.204C132.522 145.626 138.951 140.028 143.522 133.031C149.347 124.103 151.769 113.394 150.351 102.841C148.933 92.2886 143.767 82.5903 135.79 75.5016L135.697 75.4186V55.75C135.699 55.6305 135.664 55.5133 135.597 55.4141C135.53 55.3149 135.434 55.2385 135.322 55.1953C135.211 55.1479 135.088 55.1351 134.969 55.1586C134.851 55.1821 134.742 55.2407 134.657 55.3268L131.551 58.3902V55.3192C131.553 55.1997 131.518 55.0824 131.451 54.9833C131.384 54.8841 131.288 54.8077 131.177 54.7645C131.065 54.7172 130.942 54.7045 130.823 54.7282C130.704 54.7518 130.595 54.8106 130.511 54.8969L119.211 66.0614L119.05 66.0113C114.54 64.6057 94.899 63.9393 90.5806 63.9393C89.3785 63.9393 88.1498 63.9876 86.9286 64.083C77.9343 64.7851 69.3561 68.1487 62.2959 73.7416C51.4378 82.3138 45.2104 95.0765 45.2104 108.757C45.2289 116.764 47.4002 124.62 51.4986 131.509C55.597 138.397 61.4731 144.068 68.5164 147.931L68.6604 148.01V158.648C68.6748 160.367 69.3706 162.01 70.5962 163.221C71.8218 164.431 73.478 165.11 75.2042 165.11C76.9303 165.11 78.5865 164.431 79.8121 163.221C81.0377 162.01 81.7335 160.367 81.7479 158.648V152.731L82.0786 152.793C86.7842 153.675 106.598 153.814 111.387 153.188L111.702 153.147Z" fill="#3F3D56"/>
<path d="M80.3994 33.1117L49.4844 42.3628C48.5011 42.6582 47.6758 43.3302 47.1898 44.2311C46.7037 45.1321 46.5968 46.1883 46.8924 47.1677C47.1879 48.1472 47.8619 48.9697 48.7661 49.4547C49.6704 49.9396 50.731 50.0473 51.715 49.7541L78.769 41.6567L79.3357 41.4871C79.4504 38.5791 80.2427 35.7375 81.65 33.1868C81.4734 33.1077 81.2846 33.0588 81.0917 33.0422C80.8586 33.0198 80.6233 33.0434 80.3994 33.1117Z" fill="#C44D9D"/>
<path d="M51.1804 51.7265C50.77 51.7255 50.3703 51.5961 50.0378 51.3566C49.7053 51.1171 49.4567 50.7796 49.3273 50.3918L47.3942 44.5833C47.3134 44.3407 47.2814 44.0847 47.3001 43.8298C47.3187 43.5749 47.3876 43.3262 47.5028 43.0978C47.618 42.8695 47.7772 42.6659 47.9714 42.4989C48.1656 42.3318 48.3909 42.2044 48.6346 42.1241L73.7962 33.8209C74.0398 33.7405 74.2969 33.7087 74.5528 33.7272C74.8088 33.7458 75.0585 33.8143 75.2879 33.929C75.5172 34.0436 75.7216 34.2022 75.8894 34.3955C76.0572 34.5888 76.1852 34.8131 76.2659 35.0557L78.1991 40.8642C78.3599 41.342 78.3277 41.8633 78.1092 42.3178C77.8907 42.7723 77.5031 43.1243 77.0285 43.2991C77.0053 43.3078 76.9818 43.316 76.9581 43.3237L51.797 51.6266C51.5982 51.6926 51.39 51.7263 51.1804 51.7265Z" fill="#2F2E41"/>
<path d="M98.3023 22.7961C93.2239 22.798 88.3456 24.7675 84.6999 28.2877C81.0542 31.8079 78.9271 36.6025 78.7689 41.6567C78.7634 41.8541 78.7606 42.0542 78.7606 42.2544C78.7606 46.1028 79.9067 49.8649 82.054 53.0648C84.2012 56.2647 87.2532 58.7587 90.824 60.2315C94.3948 61.7042 98.324 62.0896 102.115 61.3388C105.905 60.588 109.387 58.7347 112.12 56.0134C114.853 53.2922 116.714 49.825 117.468 46.0505C118.222 42.2759 117.835 38.3635 116.356 34.808C114.877 31.2525 112.373 28.2135 109.159 26.0754C105.945 23.9373 102.167 22.7961 98.3023 22.7961ZM98.3023 61.1567C93.2692 61.1515 88.4438 59.1583 84.8848 55.6146C81.3259 52.0708 79.3242 47.266 79.3189 42.2544C79.3189 41.9958 79.3245 41.7401 79.3357 41.4871C79.4869 37.7845 80.7278 34.2077 82.9041 31.2016C85.0804 28.1955 88.0961 25.8928 91.5763 24.5796C95.0564 23.2665 98.8474 23.0009 102.478 23.816C106.108 24.631 109.418 26.4907 111.996 29.1638C114.573 31.8369 116.305 35.2054 116.975 38.8506C117.645 42.4957 117.225 46.2566 115.766 49.6657C114.307 53.0747 111.873 55.9815 108.768 58.0246C105.663 60.0676 102.024 61.1568 98.3023 61.1567Z" fill="#3F3D56"/>
<path d="M114.773 42.2544C114.773 46.6041 113.038 50.7756 109.949 53.8513C106.86 56.927 102.671 58.6549 98.3024 58.6549C93.934 58.6549 89.7446 56.927 86.6557 53.8513C83.5669 50.7756 81.8315 46.6041 81.8315 42.2544C81.8315 41.7346 81.8566 41.2231 81.9041 40.7172C82.301 36.5193 84.3064 32.6348 87.5039 29.8705C90.7014 27.1061 94.8453 25.6741 99.0751 25.872C103.305 26.0698 107.296 27.8822 110.219 30.9328C113.142 33.9834 114.773 38.0379 114.773 42.2544Z" fill="#E6E6E6"/>
<path d="M103.207 43.344C102.808 42.8213 102.283 42.4074 101.68 42.1404C100.937 41.8285 100.17 41.5775 99.3855 41.3899V36.9256C100.591 37.1065 101.721 37.6197 102.649 38.4072L103.559 36.4753C103.036 36.0109 102.435 35.6412 101.783 35.3828C101.062 35.0918 100.304 34.8983 99.5307 34.8074V32.5447H97.423V34.8296C96.6091 34.9207 95.824 35.1831 95.1199 35.5996C94.4838 35.9745 93.9483 36.4972 93.5592 37.1229C93.1879 37.7336 92.9955 38.4355 93.0038 39.1494C92.9675 39.9229 93.1926 40.6863 93.6431 41.3176C94.0577 41.8641 94.6053 42.2965 95.2342 42.574C95.9893 42.8951 96.77 43.1527 97.5682 43.344V47.6221C96.1458 47.5152 94.7905 46.9768 93.6849 46.0793L92.7749 48.014C93.3931 48.5229 94.096 48.9199 94.8519 49.1871C95.6801 49.4822 96.5454 49.6618 97.423 49.7208V51.964H99.5307V49.6791C100.701 49.5517 101.799 49.0505 102.66 48.2503C103.039 47.8883 103.339 47.4518 103.54 46.9685C103.74 46.4852 103.838 45.9657 103.827 45.4427C103.862 44.6938 103.644 43.9549 103.207 43.344ZM97.5682 40.9173C97.0547 40.7623 96.5774 40.5071 96.1639 40.1668C96.0001 40.0216 95.8706 39.8422 95.7847 39.6413C95.6987 39.4404 95.6586 39.223 95.667 39.0048C95.6518 38.5097 95.8345 38.0288 96.1751 37.6678C96.5526 37.2889 97.0397 37.0372 97.5682 36.9478V40.9173ZM100.709 46.8326C100.353 47.1963 99.8889 47.4369 99.3855 47.5192V43.8388C99.8667 43.9674 100.317 44.1915 100.709 44.4976C100.857 44.624 100.975 44.7821 101.054 44.9602C101.133 45.1382 101.17 45.3317 101.164 45.5261C101.183 46.0032 101.021 46.4699 100.709 46.8326Z" fill="#C44D9D"/>
<path d="M52.0777 75.2679C51.6461 75.2672 51.2269 75.1247 50.8849 74.8626C50.5429 74.6005 50.2974 74.2333 50.1863 73.818L49.1338 69.8513C49.0021 69.3528 49.0743 68.8225 49.3347 68.3769C49.5951 67.9313 50.0223 67.6067 50.5227 67.4743L83.727 58.7376C84.228 58.6074 84.7605 58.6801 85.2078 58.9399C85.6552 59.1996 85.9811 59.6251 86.1141 60.1234L87.0057 63.4841L86.8387 63.497C78.3228 64.1563 70.1748 67.2307 63.3587 72.3564L63.3103 72.3797L52.5734 75.2039C52.4116 75.2464 52.245 75.2679 52.0777 75.2679Z" fill="#2F2E41"/>
<path d="M46.5783 94.8614C42.6833 94.2884 38.9581 92.8859 35.6567 90.7495C34.0211 89.6919 32.507 88.4588 31.1415 87.0724C29.7937 85.7035 28.5043 84.1477 27.8368 82.3248C27.1945 80.6382 27.2276 78.7703 27.9292 77.1074C28.6213 75.4546 29.9434 74.1425 31.6055 73.4588C33.2776 72.7948 35.2978 72.7238 36.9251 73.451C37.7006 73.7894 38.3716 74.3272 38.8694 75.0092C39.1007 75.3237 39.272 75.6778 39.3747 76.0539C39.47 76.3948 39.4787 76.7539 39.4 77.0989C39.3045 77.4433 39.1362 77.7634 38.9064 78.0378C38.6765 78.3122 38.3904 78.5345 38.0672 78.6897C37.356 79.0531 36.5853 79.2871 35.7914 79.3808C34.993 79.4892 33.846 79.5879 33.2041 78.9497C33.072 78.8234 32.9681 78.6709 32.8991 78.5019C32.8509 78.3726 32.8344 78.2336 32.851 78.0966C32.8416 78.157 32.8897 77.9653 32.887 77.973C32.8768 78.0013 32.8329 78.0704 32.8953 77.9642C32.9149 77.9293 32.9366 77.8956 32.9604 77.8633C32.9392 77.8907 32.8926 77.9362 32.9758 77.858C33.0446 77.7831 33.133 77.7288 33.2311 77.7011C33.2697 77.6899 33.3089 77.681 33.3476 77.6705C33.4461 77.6437 33.2495 77.6719 33.3502 77.6687C33.3891 77.6675 33.4285 77.6684 33.4672 77.6667C33.566 77.6623 33.3697 77.6399 33.4644 77.6636C33.5012 77.6728 33.5376 77.6818 33.5739 77.6931C33.6526 77.7178 33.5181 77.6356 33.5715 77.6971C33.634 77.7693 33.5058 77.627 33.5769 77.6968C33.6122 77.7314 33.6456 77.768 33.6767 77.8064C33.8 77.9276 33.9662 77.9955 34.1394 77.9955C34.3127 77.9955 34.4789 77.9276 34.6022 77.8064C34.7212 77.6823 34.7877 77.5173 34.7877 77.3457C34.7877 77.1741 34.7212 77.009 34.6022 76.8849C33.9569 76.0884 32.6823 76.2852 32.0296 76.9584C31.1971 77.8169 31.5267 79.1775 32.3365 79.9266C33.2532 80.7747 34.5515 80.8336 35.7307 80.6914C36.7273 80.5963 37.6984 80.3231 38.5975 79.8847C39.4909 79.4476 40.1896 78.696 40.5584 77.7754C40.7249 77.2841 40.7847 76.7632 40.7339 76.2471C40.683 75.731 40.5227 75.2316 40.2635 74.7819C39.2224 72.833 37.0666 71.8338 34.9358 71.6607C33.8387 71.5751 32.7355 71.707 31.69 72.0488C30.6444 72.3906 29.6774 72.9354 28.8447 73.6518C27.2398 75.0905 26.2515 77.0883 26.0842 79.2321C25.8982 81.4548 26.7643 83.6134 28.027 85.4072C29.3489 87.2297 30.9264 88.8541 32.7113 90.2309C36.2007 93.0049 40.2938 94.927 44.6629 95.8435C45.1826 95.9504 45.7051 96.0419 46.2304 96.118C46.3975 96.1583 46.5738 96.1337 46.7234 96.0492C46.8729 95.9646 46.9845 95.8265 47.0354 95.6629C47.0802 95.4963 47.0574 95.3188 46.9719 95.1688C46.8864 95.0188 46.745 94.9084 46.5783 94.8614Z" fill="#3F3D56"/>
<path d="M108.94 66.5422C103.233 66.462 97.5446 66.6063 91.8738 66.9749C89.9355 67.1009 88.2584 67.7831 88.2584 68.9296C88.2584 69.8882 89.9221 71.0113 91.8738 70.8843C97.5417 70.5158 103.23 70.3716 108.94 70.4517C113.595 70.5171 113.592 66.6076 108.94 66.5422Z" fill="#CCCCCC"/>
<path d="M100.505 70.2581C99.8887 70.2581 85.4009 70.2352 85.4009 68.2425C85.4009 66.25 99.8887 66.2271 100.505 66.2271C101.122 66.2271 115.61 66.25 115.61 68.2425C115.61 70.2352 101.122 70.2581 100.505 70.2581ZM85.9674 68.2425C86.3639 68.8466 91.6893 69.7022 100.505 69.7022C109.322 69.7022 114.647 68.8466 115.043 68.2425C114.647 67.6385 109.322 66.783 100.505 66.783C91.6893 66.783 86.3639 67.6385 85.9674 68.2425Z" fill="#3F3D56"/>
<path d="M146.471 122.643C149.679 122.554 153.67 122.443 156.745 120.206C157.661 119.513 158.413 118.629 158.949 117.615C159.486 116.602 159.793 115.484 159.849 114.34C159.912 112.574 159.271 111.032 158.045 110C156.439 108.649 154.093 108.332 151.566 109.071L154.185 90.0165L152.262 89.7543L149.184 112.155L150.789 111.422C152.65 110.572 155.205 110.14 156.792 111.475C157.182 111.825 157.486 112.259 157.68 112.744C157.874 113.229 157.953 113.752 157.911 114.272C157.863 115.124 157.633 115.955 157.234 116.71C156.836 117.465 156.278 118.125 155.6 118.646C153.207 120.387 150.026 120.611 146.417 120.712L146.471 122.643Z" fill="#3F3D56"/>
<path d="M141.156 91.6599H130.707V93.5918H141.156V91.6599Z" fill="#3F3D56"/>
<path d="M56.8063 84.1536C56.3411 84.1521 55.8917 83.9858 55.5385 83.6844C55.1854 83.383 54.9515 82.9662 54.8789 82.5087L54.241 78.4554C54.1614 77.9456 54.2881 77.4252 54.5933 77.0083C54.8985 76.5914 55.3574 76.3121 55.8692 76.2317L89.7967 70.9384C90.3087 70.8591 90.8313 70.9852 91.2499 71.2892C91.6686 71.5931 91.949 72.05 92.0298 72.5595L92.6676 76.613C92.7473 77.1227 92.6206 77.6432 92.3154 78.0601C92.0102 78.4769 91.5513 78.7562 91.0396 78.8366L57.112 84.1298C57.0109 84.1456 56.9086 84.1536 56.8063 84.1536Z" fill="#2F2E41"/>
<path d="M42.7653 36.6524C50.6285 36.6524 57.0028 30.3052 57.0028 22.4756C57.0028 14.646 50.6285 8.29889 42.7653 8.29889C34.9022 8.29889 28.5278 14.646 28.5278 22.4756C28.5278 30.3052 34.9022 36.6524 42.7653 36.6524Z" fill="#C44D9D"/>
<path d="M50.8264 26.1438C51.2814 25.9853 51.6971 25.7317 52.0455 25.3999C52.276 25.1633 52.4517 24.8795 52.5605 24.5682C52.6692 24.2569 52.7083 23.9257 52.6749 23.5978C52.6555 23.364 52.5822 23.138 52.4605 22.9372C52.3389 22.7364 52.1722 22.5663 51.9736 22.4402C51.4584 22.1247 50.7775 22.1366 50.0901 22.4539L50.0108 16.92L49.4525 16.928L49.5458 23.4336L49.9707 23.1561C50.4636 22.8348 51.1716 22.6018 51.6811 22.9138C51.8071 22.9964 51.9123 23.1069 51.9884 23.2365C52.0646 23.3662 52.1097 23.5116 52.1202 23.6614C52.1437 23.9057 52.114 24.1522 52.0333 24.3841C51.9525 24.6159 51.8226 24.8277 51.6522 25.0051C51.047 25.603 50.1512 25.8034 49.1288 25.9866L49.2277 26.5337C49.7712 26.4516 50.3063 26.3211 50.8264 26.1438Z" fill="#2F2E41"/>
<path d="M55.7599 16.5316L52.7867 16.98L52.8703 17.5296L55.8435 17.0812L55.7599 16.5316Z" fill="#2F2E41"/>
<path d="M46.3752 17.9465L43.402 18.3948L43.4856 18.9444L46.4588 18.4961L46.3752 17.9465Z" fill="#2F2E41"/>
<path d="M52.1741 83.9057C51.6621 83.9047 51.1625 83.7483 50.7419 83.4576C50.3213 83.1669 49.9996 82.7555 49.8195 82.2782L40.0032 56.1016C38.8033 52.8912 38.9315 49.3379 40.3594 46.2215C41.7874 43.105 44.3985 40.6798 47.62 39.478L55.6018 36.5103C55.9105 36.3947 56.239 36.3411 56.5685 36.3525C56.8981 36.3639 57.2221 36.4401 57.522 36.5766C57.8211 36.7097 58.0906 36.9008 58.3147 37.1388C58.5388 37.3768 58.713 37.6568 58.8272 37.9626L77.0111 72.1491C77.1292 72.4573 77.1848 72.7858 77.1749 73.1156C77.165 73.4454 77.0897 73.7699 76.9533 74.0706C76.8169 74.3713 76.6221 74.6421 76.3802 74.8676C76.1383 75.093 75.854 75.2686 75.5436 75.3842L53.0522 83.7468C52.7714 83.8517 52.474 83.9055 52.1741 83.9057Z" fill="#2F2E41"/>
<path d="M53.1802 37.4106L71.2224 61.4348L59.014 37.6628C58.9132 37.3854 58.7585 37.1305 58.5587 36.9127C58.3589 36.6949 58.118 36.5184 57.8497 36.3933C57.5814 36.2682 57.291 36.1969 56.9951 36.1836C56.6991 36.1703 56.4035 36.2152 56.1249 36.3157L53.1802 37.4106Z" fill="#E6E6E6"/>
<path d="M81.7479 55.6556L49.5333 53.5893C49.0256 53.5568 48.5292 53.4249 48.0726 53.2014C47.616 52.9778 47.2081 52.6669 46.8721 52.2863C46.5362 51.9058 46.2789 51.4631 46.1148 50.9835C45.9506 50.5039 45.883 49.9968 45.9157 49.4912C45.9484 48.9856 46.0808 48.4913 46.3054 48.0367C46.5299 47.582 46.8422 47.1758 47.2243 46.8414C47.6065 46.5069 48.0511 46.2506 48.5328 46.0872C49.0144 45.9238 49.5237 45.8565 50.0314 45.889L82.246 47.9551C82.4838 47.9703 82.7162 48.0321 82.9301 48.1367C83.1439 48.2414 83.335 48.387 83.4923 48.5653C83.6496 48.7435 83.7701 48.9508 83.847 49.1754C83.9238 49.4 83.9555 49.6375 83.9402 49.8743L83.6754 53.9686C83.6444 54.4468 83.424 54.8932 83.0625 55.2096C82.701 55.5259 82.2281 55.6864 81.7479 55.6556Z" fill="#C44D9D"/>
<path d="M73.1397 56.9802C73.0972 56.9802 73.0545 56.9788 73.0118 56.9761L46.5589 55.2795C46.3028 55.2631 46.0525 55.1966 45.8222 55.0839C45.5919 54.9711 45.3862 54.8143 45.2167 54.6224C45.0473 54.4305 44.9175 54.2072 44.8347 53.9653C44.752 53.7234 44.7179 53.4677 44.7344 53.2127L45.1867 46.2193C45.2032 45.9643 45.27 45.7151 45.3833 45.4857C45.4965 45.2564 45.654 45.0516 45.8468 44.8829C46.0396 44.7142 46.2638 44.585 46.5067 44.5026C46.7497 44.4202 47.0065 44.3863 47.2626 44.4027L73.7153 46.0992C74.2323 46.1329 74.7147 46.3695 75.0568 46.7569C75.3988 47.1444 75.5725 47.6511 75.5398 48.166L75.0875 55.1595C75.0626 55.5342 74.9296 55.8938 74.7045 56.1951C74.4793 56.4964 74.1717 56.7266 73.8184 56.8581C73.6013 56.939 73.3714 56.9803 73.1397 56.9802Z" fill="#2F2E41"/>
<path d="M42.6022 13.0483C44.4752 11.4443 47.0472 12.8792 49.1952 12.628C51.2502 12.3877 52.8728 10.5522 53.2874 8.60225C53.771 6.3273 52.5851 4.04813 50.8372 2.62974C48.9228 1.07625 46.3839 0.630285 43.978 0.917692C41.2204 1.24709 38.6986 2.52699 36.4357 4.07509C34.2515 5.52309 32.2429 7.21789 30.4499 9.12567C28.8444 10.8913 27.4841 12.9958 27.0497 15.3717C26.655 17.5309 26.9564 19.9236 28.2383 21.7527C28.918 22.6902 29.829 23.4374 30.8832 23.9223C31.9824 24.4598 33.1549 24.844 34.2198 25.4517C35.83 26.3705 37.3949 28.2756 36.8905 30.2581C36.7824 30.6912 36.569 31.0912 36.2691 31.4229C35.9088 31.8211 35.2589 31.2948 35.6202 30.8955C36.2547 30.1942 36.2297 29.2588 35.8915 28.4215C35.4894 27.4779 34.7774 26.6983 33.8722 26.2104C32.7575 25.5758 31.5268 25.1841 30.3843 24.606C29.2907 24.078 28.3415 23.2947 27.6173 22.3228C26.2499 20.4306 25.8409 17.9681 26.151 15.69C26.4866 13.2248 27.7586 10.9847 29.3532 9.10743C31.0886 7.06446 33.2202 5.33515 35.3979 3.78159C37.7345 2.11462 40.3161 0.705304 43.1727 0.195578C45.6489 -0.246275 48.333 0.0257575 50.4984 1.36945C52.5196 2.6237 54.0696 4.78125 54.2237 7.19212C54.2791 8.28905 54.0399 9.38086 53.5307 10.3552C53.0216 11.3295 52.2609 12.1511 51.327 12.7355C50.3687 13.3065 49.2546 13.5635 48.1417 13.4703C46.952 13.3945 45.7612 13.0317 44.5639 13.1324C44.0221 13.1652 43.5058 13.3729 43.0932 13.7241C42.684 14.0746 42.1963 13.3959 42.6022 13.0483Z" fill="#2F2E41"/>
<path d="M206.44 166H0.332415C0.244424 166 0.160126 165.965 0.0979965 165.903C0.0358675 165.841 0.000976562 165.757 0.000976562 165.669C0.000976562 165.581 0.0358675 165.497 0.0979965 165.435C0.160126 165.373 0.244424 165.338 0.332415 165.338H206.44C206.528 165.338 206.612 165.373 206.675 165.435C206.737 165.497 206.772 165.581 206.772 165.669C206.772 165.757 206.737 165.841 206.675 165.903C206.612 165.965 206.528 166 206.44 166Z" fill="#3F3D56"/>
</g>
<defs>
<clipPath id="clip0_38_42">
<rect width="206.772" height="166" fill="white"/>
</clipPath>
</defs>
</svg>
