<svg width="284" height="166" viewBox="0 0 284 166" fill="none" xmlns="http://www.w3.org/2000/svg">
<g clip-path="url(#clip0_38_70)">
<path d="M172.086 92.2603H5.82181C4.27831 92.2586 2.79851 91.6437 1.70709 90.5507C0.615663 89.4576 0.00173759 87.9756 0 86.4298V5.83058C0.00173759 4.28475 0.615663 2.80273 1.70709 1.70966C2.79851 0.61659 4.27831 0.00174021 5.82181 0H172.086C173.629 0.00174021 175.109 0.61659 176.201 1.70966C177.292 2.80273 177.906 4.28475 177.908 5.83058V86.4298C177.906 87.9756 177.292 89.4576 176.201 90.5507C175.109 91.6437 173.629 92.2586 172.086 92.2603ZM5.82181 0.68595C4.4599 0.687494 3.1542 1.23001 2.19118 2.19448C1.22816 3.15895 0.68646 4.46661 0.684919 5.83058V86.4298C0.68646 87.7937 1.22816 89.1014 2.19118 90.0658C3.1542 91.0303 4.4599 91.5728 5.82181 91.5744H172.086C173.448 91.5728 174.754 91.0303 175.717 90.0658C176.68 89.1014 177.221 87.7937 177.223 86.4298V5.83058C177.221 4.46661 176.68 3.15895 175.717 2.19448C174.754 1.23001 173.448 0.687494 172.086 0.68595H5.82181Z" fill="#3F3D56"/>
<path d="M31.9344 20.0641C33.6366 20.0641 35.0166 18.6821 35.0166 16.9773C35.0166 15.2725 33.6366 13.8905 31.9344 13.8905C30.2322 13.8905 28.8523 15.2725 28.8523 16.9773C28.8523 18.6821 30.2322 20.0641 31.9344 20.0641Z" fill="#CCCCCC"/>
<path d="M31.9344 31.7252C33.6366 31.7252 35.0166 30.3432 35.0166 28.6384C35.0166 26.9336 33.6366 25.5516 31.9344 25.5516C30.2322 25.5516 28.8523 26.9336 28.8523 28.6384C28.8523 30.3432 30.2322 31.7252 31.9344 31.7252Z" fill="#CCCCCC"/>
<path d="M31.9344 43.3864C33.6366 43.3864 35.0166 42.0044 35.0166 40.2996C35.0166 38.5948 33.6366 37.2128 31.9344 37.2128C30.2322 37.2128 28.8523 38.5948 28.8523 40.2996C28.8523 42.0044 30.2322 43.3864 31.9344 43.3864Z" fill="#CCCCCC"/>
<path d="M31.9344 55.0475C33.6366 55.0475 35.0166 53.6655 35.0166 51.9607C35.0166 50.256 33.6366 48.874 31.9344 48.874C30.2322 48.874 28.8523 50.256 28.8523 51.9607C28.8523 53.6655 30.2322 55.0475 31.9344 55.0475Z" fill="#CCCCCC"/>
<path d="M83.817 78.3698C85.5192 78.3698 86.8991 76.9878 86.8991 75.2831C86.8991 73.5783 85.5192 72.1963 83.817 72.1963C82.1148 72.1963 80.7349 73.5783 80.7349 75.2831C80.7349 76.9878 82.1148 78.3698 83.817 78.3698Z" fill="#CCCCCC"/>
<path d="M61.5572 78.3698C63.2595 78.3698 64.6394 76.9878 64.6394 75.2831C64.6394 73.5783 63.2595 72.1963 61.5572 72.1963C59.855 72.1963 58.4751 73.5783 58.4751 75.2831C58.4751 76.9878 59.855 78.3698 61.5572 78.3698Z" fill="#CCCCCC"/>
<path d="M129.707 78.3698C131.409 78.3698 132.789 76.9878 132.789 75.2831C132.789 73.5783 131.409 72.1963 129.707 72.1963C128.004 72.1963 126.625 73.5783 126.625 75.2831C126.625 76.9878 128.004 78.3698 129.707 78.3698Z" fill="#CCCCCC"/>
<path d="M106.419 78.3698C108.122 78.3698 109.501 76.9878 109.501 75.2831C109.501 73.5783 108.122 72.1963 106.419 72.1963C104.717 72.1963 103.337 73.5783 103.337 75.2831C103.337 76.9878 104.717 78.3698 106.419 78.3698Z" fill="#CCCCCC"/>
<path d="M148.713 17.3202H47.3451C47.2543 17.3202 47.1672 17.2841 47.103 17.2198C47.0388 17.1554 47.0027 17.0682 47.0027 16.9773C47.0027 16.8863 47.0388 16.7991 47.103 16.7347C47.1672 16.6704 47.2543 16.6343 47.3451 16.6343H148.713C148.804 16.6343 148.891 16.6704 148.955 16.7347C149.02 16.7991 149.056 16.8863 149.056 16.9773C149.056 17.0682 149.02 17.1554 148.955 17.2198C148.891 17.2841 148.804 17.3202 148.713 17.3202Z" fill="#CCCCCC"/>
<path d="M148.713 28.9814H47.3451C47.2543 28.9814 47.1672 28.9453 47.103 28.881C47.0388 28.8166 47.0027 28.7294 47.0027 28.6384C47.0027 28.5475 47.0388 28.4603 47.103 28.3959C47.1672 28.3316 47.2543 28.2955 47.3451 28.2955H148.713C148.804 28.2955 148.891 28.3316 148.955 28.3959C149.02 28.4603 149.056 28.5475 149.056 28.6384C149.056 28.7294 149.02 28.8166 148.955 28.881C148.891 28.9453 148.804 28.9814 148.713 28.9814Z" fill="#CCCCCC"/>
<path d="M148.713 40.6426H47.3451C47.2543 40.6426 47.1672 40.6064 47.103 40.5421C47.0388 40.4778 47.0027 40.3905 47.0027 40.2996C47.0027 40.2086 47.0388 40.1214 47.103 40.0571C47.1672 39.9927 47.2543 39.9566 47.3451 39.9566H148.713C148.804 39.9566 148.891 39.9927 148.955 40.0571C149.02 40.1214 149.056 40.2086 149.056 40.2996C149.056 40.3905 149.02 40.4778 148.955 40.5421C148.891 40.6064 148.804 40.6426 148.713 40.6426Z" fill="#CCCCCC"/>
<path d="M148.713 52.3037H47.3451C47.2543 52.3037 47.1672 52.2676 47.103 52.2033C47.0388 52.139 47.0027 52.0517 47.0027 51.9608C47.0027 51.8698 47.0388 51.7826 47.103 51.7183C47.1672 51.6539 47.2543 51.6178 47.3451 51.6178H148.713C148.804 51.6178 148.891 51.6539 148.955 51.7183C149.02 51.7826 149.056 51.8698 149.056 51.9608C149.056 52.0517 149.02 52.139 148.955 52.2033C148.891 52.2676 148.804 52.3037 148.713 52.3037Z" fill="#CCCCCC"/>
<path d="M66.5228 63.9649H56.5914C56.1375 63.9643 55.7023 63.7835 55.3812 63.462C55.0602 63.1405 54.8797 62.7046 54.8792 62.25V52.9897C54.8797 52.535 55.0602 52.0991 55.3812 51.7776C55.7023 51.4561 56.1375 51.2753 56.5914 51.2748H66.5228C66.9767 51.2753 67.412 51.4561 67.733 51.7776C68.054 52.0991 68.2345 52.535 68.2351 52.9897V62.25C68.2345 62.7046 68.054 63.1405 67.733 63.462C67.412 63.7835 66.9767 63.9643 66.5228 63.9649Z" fill="#6C63FF"/>
<path d="M88.7825 63.9649H78.8512C78.3972 63.9644 77.962 63.7835 77.641 63.462C77.32 63.1405 77.1394 62.7047 77.1389 62.25V41.3285C77.1394 40.8739 77.32 40.438 77.641 40.1165C77.962 39.795 78.3972 39.6142 78.8512 39.6136H88.7825C89.2365 39.6142 89.6717 39.795 89.9927 40.1165C90.3137 40.438 90.4943 40.8739 90.4948 41.3285V62.25C90.4943 62.7047 90.3137 63.1405 89.9927 63.462C89.6717 63.7835 89.2365 63.9644 88.7825 63.9649Z" fill="#6C63FF"/>
<path d="M111.385 63.9649H101.454C101 63.9643 100.565 63.7835 100.244 63.462C99.9225 63.1405 99.742 62.7046 99.7415 62.25V29.6673C99.742 29.2127 99.9225 28.7768 100.244 28.4553C100.565 28.1338 101 27.953 101.454 27.9525H111.385C111.839 27.953 112.274 28.1338 112.595 28.4553C112.916 28.7768 113.097 29.2127 113.097 29.6673V62.25C113.097 62.7046 112.916 63.1405 112.595 63.462C112.274 63.7835 111.839 63.9643 111.385 63.9649Z" fill="#6C63FF"/>
<path d="M134.672 63.9649H124.741C124.287 63.9643 123.852 63.7835 123.531 63.462C123.21 63.1405 123.029 62.7046 123.029 62.25V18.3492C123.029 17.8945 123.21 17.4586 123.531 17.1371C123.852 16.8156 124.287 16.6348 124.741 16.6343H134.672C135.126 16.6348 135.561 16.8156 135.882 17.1371C136.203 17.4586 136.384 17.8945 136.384 18.3492V62.25C136.384 62.7046 136.203 63.1405 135.882 63.462C135.561 63.7835 135.126 63.9643 134.672 63.9649Z" fill="#6C63FF"/>
<path d="M227.206 164.06C224.126 161.454 222.256 157.337 222.746 153.329C223.237 149.321 226.275 145.637 230.216 144.786C234.158 143.935 238.65 146.291 239.847 150.146C240.506 142.713 241.265 134.967 245.212 128.637C248.785 122.905 254.974 118.803 261.682 118.069C268.389 117.335 275.451 120.107 279.635 125.409C283.818 130.711 284.842 138.419 281.912 144.507C279.754 148.991 275.778 152.328 271.611 155.043C258.149 163.743 242.002 167.28 226.142 165.005L227.206 164.06Z" fill="#F2F2F2"/>
<path d="M273.002 120.26C267.467 124.775 262.39 129.825 257.843 135.336C250.727 143.931 244.969 153.568 240.769 163.91C240.462 164.665 241.685 164.993 241.989 164.247C248.861 147.438 259.831 132.623 273.896 121.156C274.528 120.641 273.628 119.75 273.002 120.26Z" fill="white"/>
<path d="M194.726 69.6438C194.337 69.6427 193.948 69.6038 193.566 69.5274C193.497 69.5135 193.427 69.4984 193.357 69.4823L109.49 49.926C108.579 49.7135 107.974 49.1396 108.082 48.5908C108.128 48.4292 108.217 48.2835 108.341 48.1695C108.464 48.0556 108.616 47.978 108.78 47.9452C109.185 47.8335 109.611 47.824 110.021 47.9176L194.409 65.5677C196.309 65.965 197.628 67.1329 197.412 68.2263C197.299 68.7985 196.796 69.2422 195.995 69.4756C195.582 69.591 195.155 69.6476 194.726 69.6438Z" fill="#3F3D56"/>
<path d="M176.96 66.9381C177.394 67.1936 177.878 67.3507 178.38 67.3983C178.881 67.4459 179.386 67.3828 179.861 67.2136C180.335 67.0444 180.766 66.7731 181.124 66.4188C181.483 66.0645 181.759 65.6359 181.934 65.1631L194.169 65.4186L190.779 60.0297L179.68 60.6132C178.868 60.3716 177.995 60.4368 177.227 60.7966C176.46 61.1564 175.85 61.7858 175.515 62.5654C175.18 63.345 175.141 64.2207 175.408 65.0266C175.674 65.8326 176.226 66.5127 176.96 66.9381Z" fill="#FFB8B8"/>
<path d="M182.274 64.9807L182.211 61.2248C182.206 60.8372 182.346 60.4618 182.604 60.1727C182.862 59.8835 183.218 59.7015 183.603 59.6624L205.59 57.5374L223.908 51.5223C224.461 51.3407 225.044 51.271 225.624 51.3173C226.204 51.3636 226.769 51.5248 227.287 51.7918C227.804 52.0587 228.263 52.4259 228.637 52.8721C229.011 53.3183 229.293 53.8346 229.467 54.3909C229.64 54.9472 229.701 55.5325 229.646 56.1126C229.592 56.6928 229.423 57.2563 229.149 57.7704C228.875 58.2844 228.501 58.7388 228.05 59.1071C227.599 59.4754 227.08 59.7503 226.522 59.9157L206.246 65.9279L183.854 66.4976C183.515 66.5058 183.184 66.4024 182.91 66.2032C182.635 66.0041 182.434 65.7203 182.337 65.3955C182.298 65.2607 182.276 65.1212 182.274 64.9807Z" fill="#3F3D56"/>
<path d="M214.811 161.81L210.612 161.809L208.615 145.591L214.811 145.591L214.811 161.81Z" fill="#FFB8B8"/>
<path d="M215.881 165.885L202.344 165.885V165.713C202.344 165.02 202.48 164.334 202.745 163.694C203.01 163.054 203.398 162.472 203.887 161.982C204.376 161.492 204.957 161.103 205.597 160.838C206.236 160.573 206.921 160.436 207.613 160.436H207.613L215.882 160.437L215.881 165.885Z" fill="#2F2E41"/>
<path d="M227.139 161.81L222.941 161.809L220.943 145.591L227.14 145.591L227.139 161.81Z" fill="#FFB8B8"/>
<path d="M228.21 165.885L214.672 165.885V165.713C214.672 165.02 214.809 164.334 215.073 163.694C215.338 163.054 215.726 162.472 216.216 161.982C216.705 161.492 217.286 161.103 217.925 160.838C218.564 160.573 219.25 160.436 219.942 160.436H219.942L228.21 160.437L228.21 165.885Z" fill="#2F2E41"/>
<path d="M229.957 96.2642L228.954 155.837C228.951 156.026 228.909 156.212 228.831 156.383C228.753 156.555 228.64 156.709 228.5 156.835C228.36 156.961 228.195 157.056 228.016 157.116C227.837 157.175 227.648 157.197 227.461 157.18L222.548 156.733C222.225 156.703 221.924 156.561 221.697 156.33C221.469 156.099 221.331 155.796 221.306 155.472L218.43 118.313C218.423 118.225 218.383 118.144 218.318 118.085C218.254 118.026 218.169 117.995 218.081 117.996C217.994 117.998 217.911 118.033 217.848 118.095C217.786 118.156 217.749 118.239 217.746 118.326L216.308 156.337C216.295 156.691 216.145 157.027 215.89 157.273C215.634 157.519 215.294 157.657 214.939 157.657H209.67C209.322 157.657 208.986 157.523 208.732 157.284C208.478 157.045 208.324 156.717 208.303 156.369L204.615 95.9212L226.532 90.4336L229.957 96.2642Z" fill="#2F2E41"/>
<path d="M214.059 40.3262C218.705 40.3262 222.471 36.5547 222.471 31.9023C222.471 27.25 218.705 23.4785 214.059 23.4785C209.414 23.4785 205.648 27.25 205.648 31.9023C205.648 36.5547 209.414 40.3262 214.059 40.3262Z" fill="#FFB8B8"/>
<path d="M203.864 98.0364C203.719 97.8954 203.602 97.7269 203.522 97.5406C203.442 97.3542 203.399 97.1538 203.397 96.9509L202.83 56.3281C202.796 54.2616 203.416 52.2375 204.603 50.5465C205.789 48.8555 207.48 47.5846 209.433 46.9163C210.221 43.3359 214.415 42.8874 216.86 42.941C217.47 42.9541 218.068 43.1145 218.604 43.4084C219.139 43.7023 219.595 44.1211 219.934 44.6294L221.687 47.2623L225.55 49.5302C227.338 50.5752 228.748 52.162 229.577 54.0616C230.406 55.9612 230.611 58.0755 230.163 60.0994L229.568 62.8087C227.474 72.3981 227.673 82.3475 230.15 91.8451L231.347 96.415C231.409 96.653 231.414 96.9024 231.36 97.1426C231.307 97.3827 231.197 97.6066 231.039 97.7955C230.882 97.9844 230.681 98.1328 230.455 98.2285C230.229 98.3241 229.983 98.3641 229.738 98.3452L228.348 98.238C227.987 98.2106 227.647 98.0568 227.389 97.8035C227.13 97.5502 226.968 97.2137 226.933 96.8531L226.703 94.5494C226.698 94.507 226.679 94.4678 226.647 94.4393C226.616 94.4107 226.575 94.3949 226.532 94.3949C226.49 94.3949 226.449 94.4107 226.417 94.4393C226.386 94.4678 226.366 94.507 226.362 94.5494L226.139 96.7797C226.102 97.1565 225.927 97.5063 225.649 97.7625C225.37 98.0188 225.008 98.1636 224.629 98.1694L204.962 98.4725C204.954 98.4725 204.945 98.4728 204.937 98.4728C204.536 98.4736 204.151 98.3169 203.864 98.0364Z" fill="#3F3D56"/>
<path d="M214.717 36.758C214.752 37.9488 215.577 38.6377 216.591 39.2614C217.604 39.8852 218.789 40.1556 219.95 40.4165C220.106 40.4994 220.28 40.5407 220.457 40.5364C220.633 40.532 220.805 40.4822 220.957 40.3917C221.109 40.3013 221.234 40.1732 221.322 40.0198C221.41 39.8665 221.457 39.6931 221.458 39.5163L222.523 35.4613C222.899 34.1659 223.173 32.8428 223.342 31.5043C223.599 28.9289 222.989 26.1584 221.194 24.2963C219.399 22.4342 216.287 21.7727 214.136 23.2074C211.583 19.9424 199.916 27.1561 202.794 29.4265C203.306 29.8304 204.088 29.3193 204.738 29.2698C205.388 29.2202 206.117 29.3347 206.529 29.8399C207.069 30.4998 206.834 31.4829 207.056 32.3062C207.148 32.5958 207.296 32.8644 207.492 33.0964C207.688 33.3284 207.928 33.5192 208.199 33.6579C208.469 33.7965 208.763 33.8802 209.066 33.9042C209.369 33.9282 209.673 33.8919 209.961 33.7975C210.499 33.5324 211.004 33.2069 211.468 32.8274C211.967 32.4949 212.597 32.2491 213.158 32.4589C213.897 32.7353 214.16 33.6423 214.227 34.4301C214.34 35.2159 214.504 35.9935 214.717 36.758Z" fill="#2F2E41"/>
<path d="M277.026 166H146.549C146.458 166 146.371 165.964 146.307 165.9C146.243 165.835 146.207 165.748 146.207 165.657C146.207 165.566 146.243 165.479 146.307 165.415C146.371 165.35 146.458 165.314 146.549 165.314H277.026C277.117 165.314 277.204 165.35 277.268 165.415C277.332 165.479 277.369 165.566 277.369 165.657C277.369 165.748 277.332 165.835 277.268 165.9C277.204 165.964 277.117 166 277.026 166Z" fill="#3F3D56"/>
<path opacity="0.2" d="M212.753 59.3347L211.383 76.1405L204.192 93.6322L214.808 76.4835L212.753 59.3347Z" fill="black"/>
<path d="M202.51 100.146C202.902 99.8304 203.221 99.4323 203.443 98.98C203.666 98.5276 203.786 98.0319 203.797 97.5278C203.807 97.0237 203.707 96.5235 203.503 96.0623C203.3 95.6012 202.998 95.1903 202.619 94.8587L207.2 83.4939L200.967 84.7546L197.572 95.3535C197.058 96.0285 196.809 96.8689 196.872 97.7154C196.935 98.5619 197.307 99.3558 197.915 99.9465C198.524 100.537 199.328 100.884 200.175 100.921C201.021 100.957 201.852 100.682 202.51 100.146Z" fill="#FFB8B8"/>
<path d="M202.176 95.1337L198.648 93.8601C198.284 93.7269 197.984 93.4623 197.805 93.1182C197.627 92.7742 197.583 92.3758 197.684 92.0013L203.505 70.6616L204.392 51.3753C204.419 50.7932 204.561 50.2222 204.81 49.6955C205.059 49.1688 205.41 48.697 205.843 48.3075C206.276 47.9179 206.781 47.6184 207.331 47.4264C207.88 47.2344 208.462 47.1536 209.043 47.1889C209.624 47.2242 210.192 47.3747 210.714 47.6318C211.236 47.8889 211.702 48.2474 212.085 48.6864C212.467 49.1255 212.759 49.6363 212.943 50.1893C213.126 50.7422 213.199 51.3262 213.155 51.9073L211.57 73.0255L204.153 94.1933C204.041 94.5131 203.826 94.7871 203.543 94.9729C203.26 95.1588 202.924 95.2463 202.586 95.222C202.446 95.2113 202.308 95.1816 202.176 95.1337Z" fill="#3F3D56"/>
<path d="M148.713 63.9649H47.3451C47.2543 63.9649 47.1672 63.9287 47.103 63.8644C47.0388 63.8001 47.0027 63.7129 47.0027 63.6219C47.0027 63.5309 47.0388 63.4437 47.103 63.3794C47.1672 63.3151 47.2543 63.2789 47.3451 63.2789H148.713C148.804 63.2789 148.891 63.3151 148.955 63.3794C149.02 63.4437 149.056 63.5309 149.056 63.6219C149.056 63.7129 149.02 63.8001 148.955 63.8644C148.891 63.9287 148.804 63.9649 148.713 63.9649Z" fill="#3F3D56"/>
</g>
<defs>
<clipPath id="clip0_38_70">
<rect width="283.583" height="166" fill="white"/>
</clipPath>
</defs>
</svg>
